<svg width="1000" height="144" viewBox="0 0 1000 144" fill="none" xmlns="http://www.w3.org/2000/svg">
<path opacity="0.6" d="M0.148973 73.1563C0.148973 65.0197 1.6746 56.9466 4.72584 48.9371C7.77708 40.9276 12.2268 33.6809 18.075 27.197C23.9232 20.7131 31.0428 15.5641 39.4337 11.75C47.8247 7.80885 57.3598 5.83825 68.0391 5.83825C80.6255 5.83825 91.6227 8.57166 101.031 14.0385C110.439 19.5053 117.431 26.6249 122.008 35.3972L97.9795 52.179C95.9453 47.475 93.2119 43.7881 89.7793 41.1183C86.3466 38.3213 82.6597 36.4143 78.7185 35.3972C74.7773 34.253 70.9633 33.6809 67.2763 33.6809C59.2668 33.6809 52.6558 35.715 47.4432 39.7833C42.2307 43.8517 38.3531 49.0006 35.8104 55.2303C33.2677 61.4599 31.9963 67.8166 31.9963 74.3005C31.9963 81.4201 33.4584 88.1583 36.3825 94.515C39.3066 100.745 43.4385 105.766 48.7782 109.581C54.1178 113.395 60.411 115.302 67.6577 115.302C71.4718 115.302 75.3494 114.73 79.2906 113.585C83.2318 112.314 86.8551 110.28 90.1607 107.483C93.5933 104.686 96.1996 101.062 97.9795 96.6128L123.534 111.678C120.864 118.416 116.478 124.138 110.375 128.842C104.273 133.418 97.3438 136.978 89.5885 139.521C81.9604 141.936 74.3959 143.144 66.8949 143.144C57.1055 143.144 48.1425 141.174 40.0058 137.232C31.8692 133.164 24.8132 127.824 18.8378 121.213C12.8625 114.475 8.22206 106.974 4.91654 98.7105C1.73816 90.3196 0.148973 81.8015 0.148973 73.1563ZM187.719 143.907C176.403 143.907 166.741 141.555 158.732 136.851C150.722 132.147 144.556 125.917 140.234 118.162C136.038 110.407 133.94 102.016 133.94 92.9894C133.94 83.3271 136.038 74.4912 140.234 66.4817C144.429 58.4722 150.531 52.0519 158.541 47.2207C166.551 42.3896 176.276 39.974 187.719 39.974C199.034 39.974 208.696 42.3896 216.705 47.2207C224.715 52.0519 230.754 58.4086 234.822 66.291C239.018 74.1734 241.115 82.6279 241.115 91.6545C241.115 95.3414 240.861 98.5833 240.352 101.38H166.36C166.868 108.118 169.284 113.267 173.607 116.827C178.056 120.26 183.078 121.976 188.672 121.976C193.122 121.976 197.381 120.896 201.449 118.734C205.517 116.573 208.314 113.649 209.84 109.962L235.776 117.209C231.834 125.091 225.668 131.511 217.277 136.47C209.014 141.428 199.161 143.907 187.719 143.907ZM165.597 82.6915H209.077C208.442 76.3347 206.09 71.3129 202.021 67.6259C198.08 63.8119 193.185 61.9049 187.337 61.9049C181.489 61.9049 176.531 63.8119 172.462 67.6259C168.521 71.44 166.233 76.4618 165.597 82.6915ZM322.262 68.0073C314.888 68.1345 308.214 69.3423 302.238 71.6307C296.263 73.9191 291.941 77.3518 289.271 81.9286V142H258.758V41.8811H286.792V62.0956C290.224 55.3574 294.674 50.0813 300.141 46.2672C305.608 42.4532 311.329 40.4826 317.304 40.3554C319.847 40.3554 321.499 40.419 322.262 40.5462V68.0073ZM403.767 136.66C399.571 138.44 394.74 140.093 389.273 141.619C383.934 143.144 378.53 143.907 373.064 143.907C367.978 143.907 363.338 143.081 359.142 141.428C354.947 139.648 351.578 136.787 349.035 132.846C346.492 128.905 345.221 123.693 345.221 117.209V64.9561H332.444V41.8811H345.221V10.0337H375.734V41.8811H396.139V64.9561H375.734V106.72C375.734 110.026 376.56 112.441 378.213 113.967C379.865 115.365 381.963 116.064 384.506 116.064C386.794 116.064 389.146 115.683 391.562 114.92C393.977 114.157 396.075 113.331 397.855 112.441L403.767 136.66ZM419.47 30.4389V2.78702H449.982V30.4389H419.47ZM419.47 142V41.8811H449.982V142H419.47ZM481.168 73.1563H468.391V50.0813H481.168V41.8811C481.168 33.9987 482.948 27.0063 486.508 20.9038C490.068 14.6742 495.026 9.77945 501.383 6.21967C507.867 2.65988 515.495 0.879991 524.267 0.879991C531.514 0.879991 538.315 2.08777 544.672 4.50334C551.156 6.91891 557.704 10.288 564.315 14.6106L552.491 37.6856C548.677 34.253 544.418 31.5831 539.714 29.6761C535.137 27.6419 530.624 26.6249 526.174 26.6249C521.47 26.6249 517.847 27.9598 515.304 30.6296C512.888 33.2994 511.681 36.6685 511.681 40.7369V50.0813H566.984V142H536.472V73.1563H511.681V142H481.168V73.1563ZM639.408 143.907C628.22 143.907 618.558 141.491 610.422 136.66C602.412 131.829 596.246 125.472 591.923 117.59C587.728 109.708 585.63 101.126 585.63 91.8452C585.63 82.6915 587.728 74.1734 591.923 66.291C596.246 58.4086 602.412 52.0519 610.422 47.2207C618.431 42.3896 628.093 39.974 639.408 39.974C650.85 39.974 660.513 42.4532 668.395 47.4115C676.405 52.2426 682.38 58.5993 686.321 66.4817L656.572 75.4448C652.63 69.088 646.846 65.9096 639.218 65.9096C632.988 65.9096 627.712 68.2616 623.389 72.9656C619.067 77.6696 616.905 83.9628 616.905 91.8452C616.905 99.7276 619.067 106.084 623.389 110.915C627.712 115.747 632.988 118.162 639.218 118.162C643.032 118.162 646.528 117.272 649.706 115.492C652.885 113.585 655.237 111.17 656.762 108.246L686.512 117.399C682.825 125.155 676.913 131.511 668.777 136.47C660.767 141.428 650.978 143.907 639.408 143.907ZM697.823 112.06C697.823 105.449 699.666 99.664 703.353 94.7057C707.04 89.7475 712.126 85.8698 718.609 83.0729C725.093 80.1488 732.531 78.6867 740.922 78.6867C744.99 78.6867 748.995 79.0681 752.936 79.8309C756.877 80.4666 760.31 81.4201 763.234 82.6915V78.3053C763.234 66.9903 756.559 61.3328 743.21 61.3328C737.616 61.3328 732.34 62.2863 727.382 64.1933C722.551 66.1003 717.402 68.8337 711.935 72.3935L702.781 52.9418C716.003 44.2966 730.497 39.974 746.261 39.974C761.263 39.974 772.896 43.5974 781.16 50.8441C789.551 57.9637 793.746 68.3252 793.746 81.9286V108.055C793.746 111.106 794.191 113.267 795.081 114.539C796.098 115.81 797.815 116.509 800.23 116.637V142C797.56 142.509 795.145 142.89 792.984 143.144C790.822 143.398 788.915 143.526 787.262 143.526C781.541 143.526 777.155 142.381 774.104 140.093C771.18 137.805 769.336 134.69 768.574 130.749L768.002 126.362C763.552 132.083 758.212 136.47 751.982 139.521C745.753 142.445 739.333 143.907 732.722 143.907C726.11 143.907 720.135 142.509 714.795 139.712C709.583 136.915 705.451 133.164 702.4 128.46C699.349 123.629 697.823 118.162 697.823 112.06ZM758.466 115.874C761.645 113.331 763.234 110.725 763.234 108.055V99.0919C760.564 98.0748 757.64 97.312 754.462 96.8035C751.41 96.1678 748.613 95.8499 746.071 95.8499C740.35 95.8499 735.646 97.1213 731.959 99.664C728.399 102.207 726.619 105.449 726.619 109.39C726.619 112.822 727.954 115.81 730.624 118.353C733.421 120.768 737.108 121.976 741.685 121.976C744.736 121.976 747.787 121.404 750.838 120.26C753.889 119.116 756.432 117.654 758.466 115.874ZM883.578 136.66C879.382 138.44 874.551 140.093 869.084 141.619C863.745 143.144 858.341 143.907 852.875 143.907C847.789 143.907 843.149 143.081 838.953 141.428C834.758 139.648 831.389 136.787 828.846 132.846C826.303 128.905 825.032 123.693 825.032 117.209V64.9561H812.255V41.8811H825.032V10.0337H855.545V41.8811H875.95V64.9561H855.545V106.72C855.545 110.026 856.371 112.441 858.024 113.967C859.676 115.365 861.774 116.064 864.317 116.064C866.605 116.064 868.957 115.683 871.373 114.92C873.788 114.157 875.886 113.331 877.666 112.441L883.578 136.66ZM946.03 143.907C934.715 143.907 925.053 141.555 917.043 136.851C909.034 132.147 902.868 125.917 898.545 118.162C894.35 110.407 892.252 102.016 892.252 92.9894C892.252 83.3271 894.35 74.4912 898.545 66.4817C902.74 58.4722 908.843 52.0519 916.852 47.2207C924.862 42.3896 934.588 39.974 946.03 39.974C957.345 39.974 967.007 42.3896 975.017 47.2207C983.026 52.0519 989.065 58.4086 993.134 66.291C997.329 74.1734 999.427 82.6279 999.427 91.6545C999.427 95.3414 999.172 98.5833 998.664 101.38H924.671C925.18 108.118 927.595 113.267 931.918 116.827C936.368 120.26 941.39 121.976 946.983 121.976C951.433 121.976 955.692 120.896 959.761 118.734C963.829 116.573 966.626 113.649 968.151 109.962L994.087 117.209C990.146 125.091 983.98 131.511 975.589 136.47C967.325 141.428 957.472 143.907 946.03 143.907ZM923.908 82.6915H967.389C966.753 76.3347 964.401 71.3129 960.333 67.6259C956.391 63.8119 951.497 61.9049 945.649 61.9049C939.8 61.9049 934.842 63.8119 930.774 67.6259C926.833 71.44 924.544 76.4618 923.908 82.6915Z" fill="url(#paint0_linear)"/>
<defs>
<linearGradient id="paint0_linear" x1="-27.54" y1="-130" x2="2358.2" y2="325.04" gradientUnits="userSpaceOnUse">
<stop offset="0.108921" stop-color="#6E7CC8" stop-opacity="0.64"/>
<stop offset="0.470258" stop-color="#5C6BC0"/>
</linearGradient>
</defs>
</svg>
