<svg width="37" height="37" viewBox="0 0 37 37" fill="none" xmlns="http://www.w3.org/2000/svg">
<path d="M31.881 9.87678V2.40592C31.881 2.07388 31.6115 1.8044 31.2795 1.8044H26.4673C26.1353 1.8044 25.8658 2.07388 25.8658 2.40592V5.52119L18.3986 0.114138C18.188 -0.038046 17.9035 -0.038046 17.693 0.114138L0.248951 12.746C0.0378184 12.8988 -0.0512064 13.1707 0.0293971 13.4185C0.110001 13.6669 0.340984 13.8348 0.602043 13.8348H3.00812V35.4894C3.00812 35.8215 3.2776 36.091 3.60964 36.091H32.4825C32.8146 36.091 33.084 35.8215 33.084 35.4894V13.8348H35.4901C35.7512 13.8348 35.9822 13.6669 36.0622 13.4185C36.1428 13.1707 36.0537 12.8988 35.8426 12.746L31.881 9.87678ZM27.0689 3.00744H30.678V9.00578L27.0689 6.39219V3.00744ZM32.4825 12.6317H28.8734V13.8348H31.881V34.8879H14.4935C15.2105 34.8849 15.9239 34.7207 16.5862 34.3959C17.7405 33.8298 18.6049 32.8488 19.0211 31.6325L20.1893 28.2177L20.3842 27.6486C20.6964 26.7361 20.6344 25.7575 20.2097 24.8919C19.8753 24.2098 19.3424 23.6696 18.6873 23.3159L23.5734 9.03165L23.9626 7.89358C24.285 6.9528 23.781 5.9242 22.8396 5.60179C21.8976 5.28058 20.8702 5.78345 20.5478 6.72543L20.1586 7.8635L15.2737 22.1423C14.5386 22.0208 13.7855 22.1267 13.1034 22.4611C12.2378 22.8858 11.5888 23.6215 11.2772 24.5334L11.0823 25.1024L9.91415 28.5172C9.85821 28.6808 9.79024 28.8415 9.71264 28.9942L10.7839 29.5404C10.8874 29.3377 10.9782 29.1242 11.0522 28.9064L12.0261 26.0606L14.3022 26.8396L13.7182 28.5473L14.8568 28.9365L15.4409 27.2288L16.579 27.618L15.4108 31.0328C14.8743 32.6009 13.163 33.4407 11.5936 32.9053L8.33877 31.7919C8.93368 31.5471 9.48346 31.182 9.94663 30.7074L9.08526 29.8676C8.11681 30.8608 6.64189 31.2114 5.33118 30.7633C5.01599 30.6562 4.67492 30.8235 4.56725 31.138C4.45958 31.452 4.6274 31.7943 4.942 31.902L11.2026 34.0434C11.2032 34.0434 11.2044 34.044 11.205 34.044L12.9103 34.6275C13.4162 34.8007 13.9383 34.8861 14.458 34.8879H4.21115V13.8348H7.21875V12.6317H3.60964H2.45833L18.0461 1.34424L33.6338 12.6317H32.4825ZM12.4171 24.9226C12.846 23.6678 14.2168 22.9941 15.4722 23.4248L17.7489 24.2037C18.3571 24.4119 18.8479 24.8438 19.1306 25.4212C19.4133 25.9981 19.4548 26.6507 19.2467 27.2589L12.4171 24.9226ZM16.4304 22.481L21.103 8.82172L22.2411 9.2109L17.5685 22.8702L16.9994 22.6753L16.4304 22.481ZM22.8251 7.50379L22.6309 8.07283L21.4922 7.68365L21.6865 7.11461C21.7941 6.80062 22.1364 6.63339 22.4504 6.73926C22.765 6.84754 22.9328 7.1898 22.8251 7.50379ZM18.8569 28.3969L17.8837 31.2421C17.5715 32.1546 16.923 32.8903 16.0575 33.3149C15.6232 33.5279 15.16 33.6494 14.6914 33.6783C15.5311 33.1862 16.2114 32.4133 16.5507 31.4226L17.7189 28.0077L18.8569 28.3969Z" fill="#3D6AEB"/>
<path d="M12.9399 30.8357L13.3297 29.6976L14.4678 30.0874L14.078 31.2255L12.9399 30.8357Z" fill="#F25929"/>
<path d="M25.2646 18.0454H26.4677V19.2484H25.2646V18.0454Z" fill="#F25929"/>
<path d="M26.4678 19.2483H27.6708V20.4513H26.4678V19.2483Z" fill="#F25929"/>
<path d="M25.2646 20.4514H26.4677V21.6545H25.2646V20.4514Z" fill="#F25929"/>
<path d="M24.0615 19.2483H25.2646V20.4513H24.0615V19.2483Z" fill="#F25929"/>
<path d="M12.0312 11.4287H13.2343V12.6317H12.0312V11.4287Z" fill="#F25929"/>
<path d="M13.2344 12.6318H14.4374V13.8349H13.2344V12.6318Z" fill="#F25929"/>
<path d="M12.0312 13.8347H13.2343V15.0378H12.0312V13.8347Z" fill="#F25929"/>
<path d="M10.8281 12.6318H12.0312V13.8349H10.8281V12.6318Z" fill="#F25929"/>
</svg>
