<svg width="37" height="37" viewBox="0 0 37 37" fill="none" xmlns="http://www.w3.org/2000/svg">
<path d="M23.4643 6.01063C20.3548 6.00682 17.3551 7.16052 15.0494 9.24693C12.3916 5.84187 7.58747 5.00191 3.93236 7.30374C0.276962 9.60528 -1.04198 14.3005 0.880082 18.169C2.80214 22.0372 7.34094 23.8219 11.3829 22.299C11.5534 22.8586 11.7641 23.4051 12.013 23.9346C9.55473 25.5529 8.46324 28.6016 9.33549 31.4124C10.2077 34.2228 12.8336 36.1182 15.7758 36.0607C18.7183 36.0031 21.2679 34.0068 22.0298 31.1641C26.681 31.7 31.2465 29.6165 33.8896 25.7519C36.5325 21.8872 36.8184 16.8768 34.6319 12.7365C32.4454 8.59627 28.1464 6.00711 23.4643 6.01063ZM1.22493 14.4255C1.21994 11.3234 3.20246 8.56692 6.14498 7.58461C9.08749 6.6023 12.3285 7.61513 14.188 10.098C12.0338 12.4178 10.8384 15.4674 10.842 18.633C10.8437 19.4691 10.9283 20.3027 11.0938 21.1221C8.87442 22.0116 6.35776 21.7402 4.37905 20.3975C2.40035 19.055 1.21847 16.8169 1.22493 14.4255ZM15.6505 34.8617C12.6628 34.8617 10.2409 32.4399 10.2409 29.4522C10.2409 26.4647 12.6628 24.0426 15.6505 24.0426C18.6382 24.0426 21.0601 26.4647 21.0601 29.4522C21.0568 32.4384 18.6367 34.8585 15.6505 34.8617ZM23.4643 30.0532C23.0537 30.0503 22.6437 30.0253 22.2358 29.9781C22.2496 29.8044 22.2622 29.6297 22.2622 29.4522C22.2622 27.2354 21.1508 25.1661 19.303 23.9413C17.4549 22.7166 15.116 22.4997 13.0742 23.3634C12.7755 22.7148 12.5395 22.0392 12.3699 21.3457C12.1539 20.4576 12.0444 19.5469 12.0441 18.633C12.0441 12.3259 17.1573 7.21276 23.4643 7.21276C29.7717 7.21276 34.8846 12.3259 34.8846 18.633C34.8846 24.9404 29.7717 30.0532 23.4643 30.0532Z" fill="#3D6AEB"/>
<path d="M5.43256 27.0481C5.43256 26.7162 5.16343 26.447 4.8315 26.447C4.49956 26.447 4.23043 26.7162 4.23043 27.0481C4.23043 28.0442 3.42304 28.8513 2.42724 28.8513C2.0953 28.8513 1.82617 29.1204 1.82617 29.4523C1.82617 29.7843 2.0953 30.0534 2.42724 30.0534C3.42304 30.0534 4.23043 30.8608 4.23043 31.8566C4.23043 32.1885 4.49956 32.4577 4.8315 32.4577C5.16343 32.4577 5.43256 32.1885 5.43256 31.8566C5.43256 30.8608 6.23995 30.0534 7.23576 30.0534C7.56769 30.0534 7.83682 29.7843 7.83682 29.4523C7.83682 29.1204 7.56769 28.8513 7.23576 28.8513C6.23995 28.8513 5.43256 28.0442 5.43256 27.0481ZM4.8315 30.0722C4.65658 29.8362 4.44761 29.6276 4.21194 29.4523C4.44761 29.2774 4.65658 29.0685 4.8315 28.8328C5.00671 29.0685 5.21538 29.2774 5.45134 29.4523C5.21538 29.6276 5.00671 29.8362 4.8315 30.0722Z" fill="#F25929"/>
<path d="M29.4751 5.40958C29.4751 5.74152 29.7442 6.01065 30.0761 6.01065C30.4081 6.01065 30.6772 5.74152 30.6772 5.40958C30.6772 4.41378 31.4846 3.60639 32.4804 3.60639C32.8123 3.60639 33.0815 3.33726 33.0815 3.00532C33.0815 2.67339 32.8123 2.40426 32.4804 2.40426C31.4846 2.40426 30.6772 1.59717 30.6772 0.601065C30.6772 0.269129 30.4081 0 30.0761 0C29.7442 0 29.4751 0.269129 29.4751 0.601065C29.4751 1.59717 28.6677 2.40426 27.6719 2.40426C27.3399 2.40426 27.0708 2.67339 27.0708 3.00532C27.0708 3.33726 27.3399 3.60639 27.6719 3.60639C28.6677 3.60639 29.4751 4.41378 29.4751 5.40958ZM30.0761 2.38577C30.2513 2.62144 30.46 2.83041 30.696 3.00532C30.46 3.18054 30.2513 3.38921 30.0761 3.62517C29.9012 3.38921 29.6922 3.18054 29.4566 3.00532C29.6922 2.83041 29.9012 2.62144 30.0761 2.38577Z" fill="#F25929"/>
<path d="M31.2782 18.633C30.2824 18.633 29.475 17.8259 29.475 16.8298C29.475 16.4979 29.2059 16.2288 28.874 16.2288C28.542 16.2288 28.2729 16.4979 28.2729 16.8298C28.2729 17.8259 27.4655 18.633 26.4697 18.633C26.1378 18.633 25.8687 18.9021 25.8687 19.2341C25.8687 19.566 26.1378 19.8351 26.4697 19.8351C27.4655 19.8351 28.2729 20.6425 28.2729 21.6383C28.2729 21.9703 28.542 22.2394 28.874 22.2394C29.2059 22.2394 29.475 21.9703 29.475 21.6383C29.475 20.6425 30.2824 19.8351 31.2782 19.8351C31.6102 19.8351 31.8793 19.566 31.8793 19.2341C31.8793 18.9021 31.6102 18.633 31.2782 18.633ZM28.874 19.8539C28.6991 19.618 28.4901 19.4093 28.2544 19.2341C28.4901 19.0592 28.6991 18.8502 28.874 18.6145C29.0492 18.8502 29.2579 19.0592 29.4938 19.2341C29.2579 19.4093 29.0492 19.618 28.874 19.8539Z" fill="#3D6AEB"/>
<path d="M24.6664 13.8247C24.6664 13.4927 24.3973 13.2236 24.0653 13.2236C23.0695 13.2236 22.2622 12.4165 22.2622 11.4204C22.2622 11.0885 21.993 10.8193 21.6611 10.8193C21.3292 10.8193 21.06 11.0885 21.06 11.4204C21.06 12.4165 20.2526 13.2236 19.2568 13.2236C18.9249 13.2236 18.6558 13.4927 18.6558 13.8247C18.6558 14.1566 18.9249 14.4257 19.2568 14.4257C20.2526 14.4257 21.06 15.2331 21.06 16.2289C21.06 16.5609 21.3292 16.83 21.6611 16.83C21.993 16.83 22.2622 16.5609 22.2622 16.2289C22.2622 15.2331 23.0695 14.4257 24.0653 14.4257C24.3973 14.4257 24.6664 14.1566 24.6664 13.8247ZM21.6611 14.4445C21.4862 14.2085 21.2772 13.9999 21.0415 13.8247C21.2772 13.6497 21.4862 13.4408 21.6611 13.2051C21.8363 13.4408 22.045 13.6497 22.2809 13.8247C22.045 13.9999 21.8363 14.2085 21.6611 14.4445Z" fill="#3D6AEB"/>
<path d="M7.23535 24.6438H8.43748V25.8459H7.23535V24.6438Z" fill="#3D6AEB"/>
<path d="M1.2251 33.0586H2.42723V34.2607H1.2251V33.0586Z" fill="#3D6AEB"/>
<path d="M35.4853 31.2556C35.4853 30.2598 34.6779 29.4524 33.6821 29.4524C32.6863 29.4524 31.8789 30.2598 31.8789 31.2556C31.8789 32.2517 32.6863 33.0588 33.6821 33.0588C34.6779 33.0588 35.4853 32.2517 35.4853 31.2556ZM33.081 31.2556C33.081 30.9237 33.3502 30.6545 33.6821 30.6545C34.014 30.6545 34.2832 30.9237 34.2832 31.2556C34.2832 31.5875 34.014 31.8567 33.6821 31.8567C33.3502 31.8567 33.081 31.5875 33.081 31.2556Z" fill="#3D6AEB"/>
<path d="M18.0546 4.20748C18.0546 2.87974 16.9781 1.80322 15.6504 1.80322C14.3226 1.80322 13.2461 2.87974 13.2461 4.20748C13.2461 5.53552 14.3226 6.61174 15.6504 6.61174C16.9781 6.61174 18.0546 5.53552 18.0546 4.20748ZM14.4482 4.20748C14.4482 3.54361 14.9865 3.00535 15.6504 3.00535C16.3142 3.00535 16.8525 3.54361 16.8525 4.20748C16.8525 4.87165 16.3142 5.40961 15.6504 5.40961C14.9865 5.40961 14.4482 4.87165 14.4482 4.20748Z" fill="#3D6AEB"/>
<path d="M21.6611 3.00537H22.8633V4.2075H21.6611V3.00537Z" fill="#3D6AEB"/>
<path d="M24.0654 25.2449H25.2676V26.447H24.0654V25.2449Z" fill="#3D6AEB"/>
<path d="M27.6719 33.0586H28.874V34.2607H27.6719V33.0586Z" fill="#3D6AEB"/>
<path d="M7.23535 15.6277H8.43748V16.8298H7.23535V15.6277Z" fill="#3D6AEB"/>
<path d="M2.42701 15.6822L3.62914 15.5739C3.62621 15.5451 3.38877 12.6845 4.97244 10.9455C5.88108 10.0228 7.14484 9.53826 8.43766 9.61721V8.41508C6.80498 8.32879 5.21545 8.95715 4.08288 10.1367C2.14262 12.2621 2.41674 15.5439 2.42701 15.6822Z" fill="#3D6AEB"/>
<path d="M24.0654 8.41504V9.61717C24.366 9.61717 31.3715 9.74542 32.4871 18.1116L33.6784 17.9528C32.4202 8.52451 24.1491 8.41504 24.0654 8.41504Z" fill="#3D6AEB"/>
</svg>
