<svg width="41" height="37" viewBox="0 0 41 37" fill="none" xmlns="http://www.w3.org/2000/svg">
<path d="M19.109 8.19087H18.5075C18.348 8.19087 18.195 8.25425 18.0822 8.36705C17.9694 8.47986 17.906 8.63286 17.906 8.79239C17.906 8.95192 17.9694 9.10492 18.0822 9.21773C18.195 9.33054 18.348 9.39391 18.5075 9.39391H19.109C19.2686 9.39391 19.4216 9.33054 19.5344 9.21773C19.6472 9.10492 19.7106 8.95192 19.7106 8.79239C19.7106 8.63286 19.6472 8.47986 19.5344 8.36705C19.4216 8.25425 19.2686 8.19087 19.109 8.19087Z" fill="#3D6AEB"/>
<path d="M36.4043 5.40958C36.4043 5.74152 36.6734 6.01065 37.0053 6.01065C37.3373 6.01065 37.6064 5.74152 37.6064 5.40958C37.6064 4.41378 38.4138 3.60639 39.4096 3.60639C39.7415 3.60639 40.0106 3.33726 40.0106 3.00532C40.0106 2.67339 39.7415 2.40426 39.4096 2.40426C38.4138 2.40426 37.6064 1.59717 37.6064 0.601065C37.6064 0.269129 37.3373 0 37.0053 0C36.6734 0 36.4043 0.269129 36.4043 0.601065C36.4043 1.59717 35.5969 2.40426 34.6011 2.40426C34.2691 2.40426 34 2.67339 34 3.00532C34 3.33726 34.2691 3.60639 34.6011 3.60639C35.5969 3.60639 36.4043 4.41378 36.4043 5.40958ZM37.0053 2.38577C37.1805 2.62144 37.3892 2.83041 37.6252 3.00532C37.3892 3.18054 37.1805 3.38921 37.0053 3.62517C36.8304 3.38921 36.6214 3.18054 36.3858 3.00532C36.6214 2.83041 36.8304 2.62144 37.0053 2.38577Z" fill="#F25929"/>
<path d="M30.9153 18.4294C30.615 18.0256 30.2735 17.6541 29.8964 17.321L29.494 5.59906C29.4459 4.19625 28.8548 2.86698 27.8454 1.89162C26.836 0.91627 25.4872 0.371095 24.0836 0.371094H22.1167C20.5219 0.372893 18.993 1.00721 17.8653 2.13489C16.7376 3.26256 16.1033 4.7915 16.1015 6.38628C16.1015 6.469 16.1186 6.55083 16.1517 6.62662C16.1849 6.7024 16.2334 6.7705 16.2942 6.82662L15.5133 10.4709C15.4945 10.5586 15.4956 10.6494 15.5164 10.7366C15.5372 10.8238 15.5773 10.9053 15.6337 10.9751C15.6901 11.0448 15.7614 11.1011 15.8423 11.1397C15.9232 11.1784 16.0118 11.1984 16.1015 11.1984H16.8508L17.9292 14.9728C17.9697 15.1149 18.0611 15.2372 18.1861 15.3162C18.311 15.3951 18.4607 15.4253 18.6065 15.4009L20.683 15.0548L20.4157 16.1237C18.6699 16.6251 17.0914 17.5876 15.8463 18.91L16.4249 16.5956C16.5282 16.1774 16.522 15.7396 16.407 15.3244C16.292 14.9092 16.072 14.5306 15.7683 14.2251C15.7259 14.1827 15.682 14.1426 15.6373 14.1037C15.7165 13.6474 15.6564 13.1777 15.4648 12.756C15.2733 12.3342 14.9591 11.98 14.5633 11.7394C14.1646 11.5012 13.7177 11.3551 13.2553 11.312C12.7929 11.2689 12.3267 11.3298 11.8909 11.4903V10.8478C11.891 10.3838 11.7696 9.92799 11.5388 9.52555C11.308 9.12312 10.9758 8.78816 10.5753 8.55401C10.1748 8.31985 9.71995 8.19467 9.25604 8.19092C8.79214 8.18718 8.33534 8.30499 7.93111 8.53265C7.43759 8.22841 6.88308 8.03667 6.30703 7.97107C5.73099 7.90547 5.14757 7.96762 4.59827 8.15311C4.04898 8.33859 3.54731 8.64285 3.12895 9.04424C2.7106 9.44563 2.38584 9.93428 2.17779 10.4754L0.802636 14.0509C0.529199 14.7543 0.500949 15.5295 0.722452 16.251C0.943954 16.9725 1.40227 17.5983 2.02333 18.0271L1.96309 18.2832C1.89954 18.555 1.89824 18.8378 1.95929 19.1102C2.02035 19.3826 2.14217 19.6377 2.31567 19.8564C2.48916 20.0752 2.70984 20.2519 2.96122 20.3733C3.21259 20.4948 3.48817 20.5579 3.76735 20.5579C3.83559 20.5576 3.90376 20.5535 3.97153 20.5455L3.89166 20.8651C3.82161 21.1437 3.81454 21.4345 3.87098 21.7162C3.92741 21.9979 4.04592 22.2635 4.2179 22.4937C4.38987 22.7238 4.61098 22.9128 4.86515 23.0468C5.11931 23.1808 5.40015 23.2564 5.68722 23.2682L5.01336 24.7304L2.64471 25.6779C2.56354 25.7104 2.49041 25.7601 2.43043 25.8237C2.37045 25.8873 2.32505 25.9632 2.2974 26.0462L1.09436 29.6553C1.04666 29.7984 1.05449 29.9543 1.11631 30.0919C1.17812 30.2296 1.28941 30.3389 1.42809 30.3984L2.24081 30.7467L0 35.6089L1.0926 36.1124L3.34697 31.2207L5.63872 32.2029C5.64137 32.2041 5.64401 32.2052 5.64665 32.2063L15.8725 36.4169C15.946 36.4472 16.0248 36.4626 16.1043 36.4622C16.1838 36.4618 16.2624 36.4457 16.3356 36.4148C16.4089 36.3838 16.4753 36.3387 16.5309 36.2819C16.5866 36.2251 16.6305 36.1579 16.66 36.0841L17.6078 33.7145L17.9936 36.5435L19.1856 36.3809L17.5535 24.4126C17.4092 23.3625 17.6673 22.2967 18.276 21.429L19.3502 19.8944L19.1322 20.6575C19.1066 20.747 19.1022 20.8412 19.1192 20.9328C19.1363 21.0243 19.1743 21.1106 19.2304 21.1849C19.2865 21.2593 19.359 21.3196 19.4423 21.3611C19.5257 21.4026 19.6175 21.4242 19.7106 21.4242H23.3197C23.4314 21.4242 23.5409 21.3931 23.6359 21.3344C23.731 21.2757 23.8078 21.1916 23.8577 21.0917L25.1243 18.5587V26.2364C25.1243 26.3959 25.1876 26.5489 25.3004 26.6617C25.4133 26.7745 25.5663 26.8379 25.7258 26.8379H25.783L26.3052 32.0603L23.4591 35.4756L24.3833 36.2458L27.3909 32.6367C27.4421 32.5753 27.4805 32.5043 27.5039 32.4279C27.5273 32.3515 27.5353 32.2712 27.5273 32.1917L26.9919 26.8379H30.5379V32.604L27.7065 35.4354L28.5572 36.286L31.5648 33.2784C31.6776 33.1656 31.741 33.0126 31.741 32.8531V26.8379C31.9005 26.8379 32.0535 26.7745 32.1663 26.6617C32.2791 26.5489 32.3425 26.3959 32.3425 26.2364V22.7382C32.3461 21.1852 31.8453 19.6731 30.9153 18.4294ZM31.1395 22.7382V25.6349H26.3273V16.819L26.8527 16.9767C28.0918 17.3484 29.178 18.1096 29.9502 19.1475C30.7224 20.1854 31.1395 21.4445 31.1395 22.7382ZM22.1167 1.57413H24.0836C25.1765 1.57004 26.2279 1.99272 27.0139 2.75218C27.7998 3.51164 28.2583 4.54789 28.2917 5.64033L28.6626 16.4458C28.1988 16.1856 27.7078 15.9772 27.1984 15.8244L26.1476 15.5091L24.6032 12.4204C24.9837 11.7547 25.9512 10.0615 26.4841 9.12932C26.6539 8.83014 26.7209 8.48354 26.6749 8.14264C26.6288 7.80175 26.4722 7.48536 26.2291 7.24197L26.2138 7.22662C26.071 7.08306 25.9011 6.96923 25.7141 6.89174C25.527 6.81426 25.3264 6.77464 25.1239 6.77519C24.9214 6.77468 24.7204 6.81435 24.5333 6.89191C24.3462 6.96947 24.1764 7.08337 24.0336 7.22703L23.3846 7.87642L22.1167 6.18575V3.37869H20.9136V5.78476H17.3419C17.4899 4.62245 18.0563 3.55388 18.9351 2.7789C19.8139 2.00393 20.945 1.57564 22.1167 1.57413ZM22.2156 14.7993C22.2967 14.7858 22.3742 14.7558 22.4433 14.7111C22.5124 14.6665 22.5715 14.6081 22.6172 14.5397L23.0181 13.9382L22.0172 13.2708L21.7607 13.6555L18.9384 14.1259L17.8829 10.4317C17.847 10.306 17.7711 10.1954 17.6668 10.1167C17.5624 10.038 17.4352 9.99538 17.3045 9.99539H16.8455L17.49 6.9878H21.2144L22.8385 9.15325C22.8902 9.22221 22.9561 9.27925 23.0318 9.32051C23.1075 9.36176 23.1912 9.38627 23.2772 9.39236C23.3632 9.39846 23.4495 9.386 23.5302 9.35584C23.611 9.32568 23.6843 9.27851 23.7452 9.21754L24.8846 8.07739C24.9479 8.014 25.0339 7.97833 25.1235 7.97822C25.2131 7.97811 25.2991 8.01357 25.3626 8.0768L25.3779 8.09211C25.4356 8.14819 25.473 8.2219 25.4842 8.3016C25.4954 8.3813 25.4798 8.46246 25.4397 8.53227C24.7663 9.71012 23.3989 12.103 23.3989 12.103C23.3498 12.189 23.3227 12.2858 23.3199 12.3848C23.3172 12.4838 23.3389 12.5819 23.3832 12.6705L24.8076 15.5192L21.7101 15.9063L21.9769 14.8391L22.2156 14.7993ZM13.6954 27.4394H14.0948L13.2944 30.1638L8.28175 28.7855V27.4394C8.28174 27.3093 8.23954 27.1827 8.16147 27.0785L6.36174 24.6789L6.99207 23.3111C7.26694 23.5981 7.62536 23.7911 8.0163 23.8626C8.40723 23.9341 8.81075 23.8804 9.16941 23.7093C9.287 23.6532 9.39852 23.5851 9.5022 23.5063C9.62943 23.6378 9.77798 23.7469 9.94157 23.829C10.1527 23.9345 10.384 23.9935 10.6199 24.0019C10.8558 24.0103 11.0908 23.9678 11.3089 23.8775C11.527 23.7872 11.7231 23.6511 11.884 23.4783C12.0449 23.3056 12.1668 23.1003 12.2414 22.8764L12.3333 22.6008C12.647 22.8435 13.0324 22.9752 13.4291 22.9754C13.4566 22.9754 13.4837 22.9732 13.511 22.9719C13.2339 23.9086 13.0934 24.8803 13.0939 25.857V26.8379C13.0939 26.9974 13.1573 27.1504 13.2701 27.2632C13.3829 27.376 13.5359 27.4394 13.6954 27.4394ZM12.8094 16.8416C12.5012 17.1678 12.0962 17.3862 11.6543 17.4646C11.2124 17.543 10.757 17.4773 10.3553 17.2771L7.94927 16.0741C7.54781 15.8731 7.22169 15.5482 7.01913 15.1475C6.81656 14.7468 6.7483 14.2916 6.82443 13.8491L12.8094 16.8416ZM14.9176 15.0758C15.075 15.2341 15.1889 15.4302 15.2485 15.6453C15.3081 15.8604 15.3113 16.0872 15.2578 16.3038L14.0026 21.3245C13.9644 21.4764 13.8675 21.607 13.7332 21.6876C13.5988 21.7682 13.438 21.7923 13.286 21.7545C13.207 21.7348 13.1329 21.6989 13.0684 21.6492C13.004 21.5995 12.9505 21.537 12.9113 21.4656C12.8721 21.3942 12.8481 21.3155 12.8408 21.2344C12.8335 21.1533 12.843 21.0716 12.8688 20.9944L14.2661 16.8023C14.3122 16.6651 14.3065 16.5156 14.2512 16.3818C14.1959 16.248 14.094 16.1387 13.9645 16.0741L12.5385 15.3611L13.338 14.8814C13.5852 14.7327 13.875 14.6711 14.1613 14.7063C14.4476 14.7416 14.7139 14.8717 14.9176 15.0758ZM7.72935 21.7113L8.20861 20.6713L8.25166 20.5779L8.61422 20.7592C8.68487 20.7946 8.76179 20.8157 8.8406 20.8213C8.91941 20.827 8.99856 20.817 9.07351 20.792C9.14847 20.767 9.21777 20.7275 9.27744 20.6757C9.33711 20.6239 9.38598 20.5609 9.42126 20.4902L9.47533 20.3821L9.02535 22.1683C9.0019 22.2614 8.9593 22.3485 8.90026 22.4242C8.84122 22.4999 8.76705 22.5624 8.68249 22.6078C8.59792 22.6531 8.50482 22.6804 8.40913 22.6877C8.31344 22.6951 8.21727 22.6824 8.12676 22.6505C8.03625 22.6186 7.95339 22.5681 7.88348 22.5024C7.81357 22.4366 7.75815 22.357 7.72075 22.2686C7.68335 22.1802 7.66479 22.085 7.66628 21.9891C7.66776 21.8931 7.68924 21.7985 7.72935 21.7113ZM10.2473 22.2469L11.1407 18.6965C11.5812 18.7156 12.0211 18.6464 12.4344 18.4929L11.1 22.496C11.0799 22.5564 11.047 22.6118 11.0036 22.6584C10.9602 22.705 10.9073 22.7417 10.8485 22.766C10.7897 22.7904 10.7263 22.8019 10.6626 22.7996C10.599 22.7973 10.5366 22.7814 10.4797 22.7529C10.3894 22.7073 10.3174 22.6324 10.2752 22.5405C10.233 22.4486 10.2232 22.3451 10.2473 22.2469ZM7.94923 17.4191L9.27928 18.0841L8.61422 19.4142L7.28423 18.7492L7.94923 17.4191ZM13.9443 12.771C14.0801 12.8533 14.1963 12.9644 14.2847 13.0963C14.3731 13.2283 14.4316 13.3781 14.456 13.535C13.858 13.4244 13.2401 13.5364 12.719 13.8498L11.263 14.7234L10.464 14.3239L11.5557 13.123C11.8524 12.7981 12.2521 12.5857 12.6873 12.5216C13.1225 12.4574 13.5665 12.5455 13.9443 12.771ZM10.6878 10.8478V12.2902C10.6805 12.2982 10.6728 12.3057 10.6655 12.3137L10.0804 12.9573C10.0585 12.5681 9.96966 12.1855 9.81774 11.8265L9.7912 11.5348C9.72321 10.7629 9.42768 10.0286 8.94205 9.42484C9.15335 9.38041 9.37192 9.3838 9.58175 9.43478C9.79158 9.48575 9.98735 9.583 10.1547 9.71943C10.3221 9.85585 10.4568 10.028 10.5491 10.2232C10.6413 10.4185 10.6887 10.6318 10.6878 10.8478ZM1.92549 14.4827L3.30064 10.9073C3.45633 10.5025 3.70578 10.1404 4.02853 9.85063C4.35127 9.5609 4.73811 9.35182 5.15731 9.24055C5.57651 9.12928 6.01611 9.11899 6.44006 9.21052C6.864 9.30205 7.2602 9.49279 7.59615 9.7671C7.65297 9.81349 7.70696 9.86232 7.7594 9.91242C7.3097 9.76141 6.83344 9.70592 6.36107 9.7495C5.8887 9.79308 5.43063 9.93478 5.01615 10.1655C4.60168 10.3963 4.23992 10.711 3.95403 11.0895C3.66814 11.4681 3.46441 11.9021 3.35586 12.3639L2.33364 16.7084C2.06622 16.4116 1.88646 16.0463 1.8144 15.6533C1.74234 15.2604 1.78079 14.8551 1.92549 14.4827ZM3.60713 19.3348C3.44249 19.2929 3.30079 19.1883 3.21238 19.0432C3.12397 18.8982 3.09587 18.7243 3.13411 18.5588L4.52688 12.6395C4.65089 12.1125 4.96424 11.6494 5.40735 11.3383C5.85047 11.0273 6.39245 10.8899 6.93024 10.9523C7.46803 11.0147 7.96414 11.2726 8.32422 11.6769C8.68431 12.0812 8.88327 12.6037 8.88327 13.1451V13.5335L6.74623 12.465C6.60353 12.3936 6.43835 12.3819 6.287 12.4324C6.13566 12.4828 6.01055 12.5913 5.93919 12.734C5.73304 13.145 5.61557 13.5948 5.59439 14.0542L4.39185 18.864C4.37125 18.9464 4.3346 19.024 4.28402 19.0923C4.23343 19.1606 4.16988 19.2182 4.09701 19.2619C4.02414 19.3056 3.94337 19.3346 3.85932 19.3471C3.77526 19.3596 3.68957 19.3554 3.60713 19.3348ZM5.05872 21.1569L5.55892 19.1559L6.2899 16.2321C6.46519 16.458 6.66951 16.6599 6.89756 16.8324L5.93919 18.7492C5.86785 18.8918 5.85611 19.057 5.90655 19.2084C5.95699 19.3597 6.06548 19.4848 6.20815 19.5562L7.17507 20.0396L6.63689 21.2074L6.43673 21.6418C6.36025 21.8077 6.22461 21.9392 6.05633 22.0104C5.88806 22.0816 5.69927 22.0874 5.52692 22.0268C5.35456 21.9661 5.21104 21.8433 5.12445 21.6824C5.03785 21.5215 5.01441 21.3341 5.05872 21.1569ZM3.21939 27.0846L4.53856 27.7441L3.75732 30.0878L2.4107 29.5106L3.21939 27.0846ZM15.7686 35.0731L6.10888 31.0956L4.86696 30.5633L5.84483 27.6296C5.89061 27.4923 5.88531 27.343 5.8299 27.2092C5.77449 27.0755 5.67269 26.9662 5.54319 26.9014L4.33516 26.2974L5.67103 25.763L7.07871 27.6399V29.244C7.07871 29.3757 7.12196 29.5038 7.20181 29.6086C7.28167 29.7134 7.39372 29.7891 7.52074 29.824L13.5453 31.4805C13.5461 31.4807 13.547 31.4808 13.5478 31.4811L14.8584 31.8357L15.1726 30.6743L14.4552 30.4803L15.3486 27.4394H16.7521L17.2784 31.2988L15.7686 35.0731ZM17.2905 20.7391C16.5078 21.8547 16.1759 23.225 16.3615 24.5751L16.588 26.2364H14.2969V25.857C14.2951 24.1794 14.7667 22.5353 15.6576 21.1138C16.5485 19.6922 17.8225 18.5509 19.333 17.8212L17.2905 20.7391ZM22.9479 20.2212H20.508L21.3828 17.1596L24.6852 16.7468L22.9479 20.2212Z" fill="#3D6AEB"/>
</svg>
