<svg width="36" height="36" viewBox="0 0 36 36" fill="none" xmlns="http://www.w3.org/2000/svg">
<path d="M21.4291 14.9294C21.5687 14.9293 21.7025 14.8738 21.8012 14.7751C21.8999 14.6764 21.9553 14.5426 21.9554 14.403V11.4992C21.9553 11.3596 21.8999 11.2258 21.8012 11.1271C21.7025 11.0284 21.5687 10.973 21.4291 10.9729H16.0756V8.70455C16.0756 8.56496 16.0201 8.43109 15.9214 8.33238C15.8227 8.23368 15.6888 8.17822 15.5493 8.17822H6.40617C6.26658 8.17822 6.13271 8.23368 6.034 8.33238C5.9353 8.43109 5.87984 8.56496 5.87984 8.70455V10.9729H0.526329C0.386762 10.973 0.252935 11.0284 0.154246 11.1271C0.0555575 11.2258 7.96841e-05 11.3596 0 11.4992V14.403C7.96841e-05 14.5426 0.0555575 14.6764 0.154246 14.7751C0.252935 14.8738 0.386762 14.9293 0.526329 14.9294H1.38079L2.46983 35.1485C2.47721 35.283 2.53581 35.4095 2.63358 35.5022C2.73135 35.5948 2.86088 35.6465 2.99556 35.6466H18.9599C19.0945 35.6465 19.2241 35.5948 19.3218 35.5022C19.4196 35.4095 19.4782 35.283 19.4856 35.1485L20.5746 14.9294H21.4291ZM6.9325 9.23088H15.0229V10.9729H6.9325V9.23088ZM1.05266 12.0255H20.9028V13.8767H1.05266V12.0255ZM18.4612 34.5939H3.49422L2.43525 14.9294H19.5202L18.4612 34.5939Z" fill="#3D6AEB"/>
<path d="M6.99606 29.5156C7.13562 29.5155 7.26945 29.46 7.36814 29.3613C7.46683 29.2626 7.5223 29.1288 7.52238 28.9892V19.3093C7.52238 19.1697 7.46693 19.0358 7.36823 18.9371C7.26952 18.8384 7.13565 18.783 6.99606 18.783C6.85646 18.783 6.72259 18.8384 6.62388 18.9371C6.52518 19.0358 6.46973 19.1697 6.46973 19.3093V28.9892C6.46973 29.1288 6.52518 29.2627 6.62388 29.3614C6.72259 29.4601 6.85646 29.5156 6.99606 29.5156Z" fill="#3D6AEB"/>
<path d="M10.9775 29.5156C11.1171 29.5155 11.2509 29.46 11.3496 29.3613C11.4483 29.2626 11.5037 29.1288 11.5038 28.9892V19.3093C11.5038 19.1697 11.4484 19.0358 11.3497 18.9371C11.251 18.8384 11.1171 18.783 10.9775 18.783C10.8379 18.783 10.704 18.8384 10.6053 18.9371C10.5066 19.0358 10.4512 19.1697 10.4512 19.3093V28.9892C10.4513 29.1288 10.5067 29.2626 10.6054 29.3613C10.7041 29.46 10.8379 29.5155 10.9775 29.5156Z" fill="#3D6AEB"/>
<path d="M14.9589 29.5156C15.0985 29.5156 15.2324 29.4601 15.3311 29.3614C15.4298 29.2627 15.4853 29.1288 15.4853 28.9892V19.3093C15.4853 19.1697 15.4298 19.0358 15.3311 18.9371C15.2324 18.8384 15.0985 18.783 14.9589 18.783C14.8194 18.783 14.6855 18.8384 14.5868 18.9371C14.4881 19.0358 14.4326 19.1697 14.4326 19.3093V28.9892C14.4327 29.1288 14.4882 29.2626 14.5869 29.3613C14.6856 29.46 14.8194 29.5155 14.9589 29.5156Z" fill="#3D6AEB"/>
<path d="M29.7268 16.9509C30.9737 15.165 32.2745 13.0425 32.0486 12.2431C31.9974 12.0433 31.8933 11.8609 31.7473 11.7152C31.6013 11.5695 31.4188 11.4657 31.2189 11.4148C30.9022 11.3522 30.5752 11.3645 30.2642 11.4507C29.9531 11.5369 29.6665 11.6947 29.4272 11.9114C29.0172 12.257 28.5132 12.472 27.98 12.5288C27.4469 12.472 26.9429 12.257 26.533 11.9114C26.2938 11.6947 26.0072 11.5369 25.6961 11.4507C25.385 11.3645 25.0581 11.3522 24.7414 11.4148C24.5415 11.4657 24.3589 11.5695 24.2129 11.7152C24.0669 11.8609 23.9628 12.0433 23.9116 12.2431C23.6857 13.0425 24.9865 15.1647 26.2329 16.9503C24.1877 18.6866 20.3193 22.9486 20.3193 30.3341V30.3735L20.3211 30.4108C20.3211 30.4369 20.3235 30.4628 20.3248 30.4751C20.3984 31.8747 21.0076 33.1924 22.0262 34.155C23.0448 35.1177 24.3946 35.6517 25.7962 35.6464H30.1662C31.5647 35.6518 32.9117 35.1197 33.9291 34.1602C34.9464 33.2006 35.5562 31.8869 35.6325 30.4905C35.6343 30.4637 35.6355 30.4379 35.6367 30.4117L35.6385 30.3744C35.6385 30.3612 35.6385 30.3479 35.6385 30.335C35.64 22.9492 31.7725 18.6875 29.7268 16.9509ZM25.016 12.4311C25.1563 12.4166 25.2982 12.4301 25.4332 12.471C25.5682 12.5119 25.6938 12.5793 25.8025 12.6693C26.4094 13.2026 27.1741 13.523 27.98 13.5815C28.7859 13.523 29.5507 13.2027 30.1578 12.6693C30.2665 12.5794 30.3921 12.5121 30.5271 12.4712C30.6621 12.4303 30.8039 12.4167 30.9443 12.4311C30.9645 12.4338 30.9835 12.4425 30.9986 12.4562C31.0137 12.4699 31.0244 12.4879 31.0291 12.5078C31.0173 12.9854 29.8724 14.9084 28.7415 16.5223H27.2188C26.0879 14.9088 24.9426 12.9857 24.9312 12.5078C24.9359 12.4879 24.9465 12.4699 24.9617 12.4562C24.9768 12.4425 24.9957 12.4338 25.016 12.4311ZM34.5819 30.4228C34.522 31.5519 34.03 32.6148 33.208 33.3912C32.386 34.1676 31.2969 34.5982 30.1662 34.5937H25.7962C24.6627 34.5978 23.5713 34.1652 22.7483 33.3858C21.9253 32.6064 21.4341 31.5401 21.3765 30.4081L21.372 30.3233C21.3762 23.4909 24.8752 19.517 26.8118 17.8418C26.1426 19.6902 25.361 22.3721 25.4903 24.5487C25.498 24.6827 25.5567 24.8088 25.6544 24.901C25.752 24.9932 25.8811 25.0446 26.0154 25.0446H26.047C26.1161 25.0406 26.1838 25.023 26.2461 24.9928C26.3085 24.9625 26.3642 24.9203 26.4102 24.8685C26.4562 24.8167 26.4915 24.7564 26.5141 24.6909C26.5367 24.6255 26.5462 24.5562 26.542 24.487C26.4055 22.1883 27.4443 19.12 28.0269 17.5996C28.6902 19.3669 29.1083 21.2168 29.2696 23.0975C29.2803 23.2292 29.3401 23.3521 29.4371 23.4418C29.5342 23.5314 29.6614 23.5813 29.7936 23.5814C29.8076 23.5814 29.822 23.5808 29.8369 23.5796C29.9759 23.5682 30.1047 23.502 30.1949 23.3957C30.2852 23.2893 30.3295 23.1514 30.3181 23.0124C30.1675 21.295 29.8207 19.6005 29.2844 17.9621C31.2441 19.7035 34.5834 23.6506 34.5877 30.3248L34.5819 30.4228Z" fill="#3D6AEB"/>
<path d="M23.7146 8.22621C23.7046 8.29458 23.7082 8.36425 23.7251 8.43125C23.742 8.49824 23.772 8.56124 23.8132 8.61666C23.8545 8.67207 23.9063 8.71881 23.9657 8.7542C24.025 8.78959 24.0908 8.81294 24.1591 8.82292C24.1845 8.82675 24.2102 8.82866 24.2358 8.82863C24.362 8.82853 24.484 8.78306 24.5794 8.70051C24.6749 8.61797 24.7375 8.50386 24.7558 8.379C24.7736 8.25869 25.1751 5.42254 24.0075 3.83753C23.0265 2.50577 23.015 1.84801 23.9561 0.90453C24.0063 0.855927 24.0464 0.797809 24.0739 0.733567C24.1014 0.669326 24.1159 0.600247 24.1164 0.530363C24.1169 0.460478 24.1035 0.391186 24.077 0.32653C24.0505 0.261875 24.0113 0.20315 23.9619 0.153782C23.9124 0.104415 23.8536 0.0653931 23.7889 0.0389942C23.7242 0.0125953 23.6549 -0.000652165 23.585 2.46871e-05C23.5151 0.00070154 23.446 0.0152892 23.3819 0.0429365C23.3177 0.0705838 23.2596 0.110737 23.2111 0.161053C21.5834 1.79237 22.2243 3.1921 23.1597 4.46191C24.0701 5.69713 23.7185 8.20215 23.7146 8.22621Z" fill="#F25929"/>
<path d="M27.1233 8.2262C27.1133 8.29457 27.1169 8.36424 27.1338 8.43124C27.1507 8.49823 27.1807 8.56123 27.2219 8.61665C27.2632 8.67206 27.315 8.7188 27.3744 8.75419C27.4337 8.78958 27.4994 8.81293 27.5678 8.82291C27.5932 8.82673 27.6188 8.82864 27.6445 8.82862C27.7709 8.8288 27.8932 8.78346 27.9889 8.7009C28.0846 8.61833 28.1474 8.50405 28.1657 8.37899C28.1835 8.25868 28.585 5.42252 27.4174 3.83752C26.4364 2.50576 26.4249 1.848 27.366 0.904517C27.4148 0.855522 27.4535 0.797392 27.4799 0.733444C27.5062 0.669497 27.5197 0.600986 27.5196 0.531822C27.5195 0.462658 27.5057 0.394196 27.4791 0.330345C27.4526 0.266494 27.4137 0.208505 27.3647 0.159687C27.3157 0.11087 27.2575 0.0721807 27.1936 0.045829C27.1296 0.0194772 27.0611 0.00597871 26.992 0.00610439C26.9228 0.00623006 26.8543 0.0199774 26.7905 0.0465614C26.7266 0.0731454 26.6686 0.112045 26.6198 0.161041C24.9921 1.79236 25.633 3.19209 26.5684 4.4619C27.4785 5.69712 27.1269 8.20214 27.1233 8.2262Z" fill="#F25929"/>
<path d="M30.532 8.22621C30.522 8.29458 30.5255 8.36425 30.5425 8.43125C30.5594 8.49824 30.5894 8.56124 30.6306 8.61666C30.6719 8.67207 30.7237 8.71881 30.7831 8.7542C30.8424 8.78959 30.9081 8.81294 30.9765 8.82292C31.0019 8.82675 31.0275 8.82866 31.0532 8.82863C31.1794 8.82853 31.3014 8.78306 31.3968 8.70051C31.4923 8.61797 31.5549 8.50386 31.5732 8.379C31.591 8.25869 31.9925 5.42254 30.8249 3.83753C29.8439 2.50577 29.8324 1.84801 30.7735 0.90453C30.8237 0.855927 30.8638 0.797809 30.8913 0.733567C30.9188 0.669326 30.9332 0.600247 30.9338 0.530363C30.9343 0.460478 30.9209 0.391186 30.8944 0.32653C30.8679 0.261875 30.8287 0.20315 30.7793 0.153782C30.7298 0.104415 30.671 0.0653931 30.6063 0.0389942C30.5416 0.0125953 30.4722 -0.000652165 30.4024 2.46871e-05C30.3325 0.00070154 30.2634 0.0152892 30.1992 0.0429365C30.1351 0.0705838 30.077 0.110737 30.0285 0.161053C28.4008 1.79237 29.0417 3.1921 29.9771 4.46191C30.8872 5.69713 30.5356 8.20215 30.532 8.22621Z" fill="#F25929"/>
</svg>
