<svg width="36" height="36" viewBox="0 0 36 36" fill="none" xmlns="http://www.w3.org/2000/svg">
<path d="M3.80265 13.9622C3.86489 13.9923 3.93244 14.0098 4.00144 14.0137C4.07045 14.0176 4.13954 14.0079 4.20479 13.9851C4.27004 13.9623 4.33015 13.9269 4.3817 13.8809C4.43325 13.8348 4.47523 13.7791 4.50522 13.7168C5.89295 10.5977 6.73779 7.26449 7.00333 3.86094C7.0137 3.72171 6.96833 3.58406 6.87721 3.47827C6.78609 3.37249 6.65668 3.30723 6.51745 3.29687C6.37822 3.2865 6.24057 3.33186 6.13479 3.42298C6.029 3.5141 5.96375 3.64351 5.95338 3.78274C5.68776 7.05311 4.8778 10.2561 3.55693 13.2597C3.49644 13.3854 3.48834 13.5301 3.53441 13.6618C3.58048 13.7935 3.67696 13.9016 3.80265 13.9622Z" fill="#2C47F0"/>
<path d="M3.79817 24.0371C3.71988 23.9214 3.59885 23.8416 3.4617 23.8152C3.32456 23.7888 3.18253 23.8179 3.06687 23.8962C2.95121 23.9745 2.87139 24.0955 2.84496 24.2326C2.81854 24.3698 2.84768 24.5118 2.92597 24.6275C4.30946 26.6726 5.13835 29.698 5.13835 31.443C5.13835 31.5826 5.1938 31.7164 5.29251 31.8152C5.39121 31.9139 5.52509 31.9693 5.66468 31.9693C5.80427 31.9693 5.93814 31.9139 6.03685 31.8152C6.13556 31.7164 6.19101 31.5826 6.19101 31.443C6.19161 29.5653 5.35279 26.3316 3.79817 24.0371Z" fill="#2C47F0"/>
<path d="M35.4857 26.1661L32.7046 23.384V0.526329C32.7046 0.45721 32.6909 0.388769 32.6645 0.324911C32.638 0.261054 32.5993 0.203032 32.5504 0.154158C32.5015 0.105284 32.4435 0.0665148 32.3796 0.0400643C32.3158 0.0136138 32.2473 0 32.1782 0H0.526329C0.386762 7.96841e-05 0.252935 0.0555575 0.154246 0.154246C0.0555575 0.252935 7.96841e-05 0.386762 0 0.526329V35.1136C7.96841e-05 35.2532 0.0555575 35.387 0.154246 35.4857C0.252935 35.5844 0.386762 35.6399 0.526329 35.64H32.1782C32.2473 35.64 32.3158 35.6264 32.3796 35.5999C32.4435 35.5735 32.5015 35.5347 32.5504 35.4858C32.5993 35.4369 32.638 35.3789 32.6645 35.3151C32.6909 35.2512 32.7046 35.1828 32.7046 35.1136V27.7832L33.2868 28.3655C33.3855 28.4641 33.5193 28.5195 33.6589 28.5195C33.7984 28.5195 33.9322 28.4641 34.0309 28.3655L35.4857 26.9104C35.5346 26.8616 35.5734 26.8036 35.5999 26.7397C35.6264 26.6758 35.64 26.6074 35.64 26.5382C35.64 26.4691 35.6264 26.4007 35.5999 26.3368C35.5734 26.2729 35.5346 26.2149 35.4857 26.1661ZM12.7423 12.7898L15.8253 15.8732V34.5873H11.5723C11.4252 27.4653 8.3208 22.0802 5.349 19.9253V18.6483C9.33647 14.5255 10.0535 6.09368 10.098 1.05386H15.8253V14.3847L13.4863 12.0454C13.3877 11.9467 13.2538 11.8913 13.1143 11.8913C12.9748 11.8913 12.8409 11.9467 12.7423 12.0454C12.6436 12.1441 12.5882 12.2779 12.5882 12.4174C12.5882 12.557 12.6436 12.6911 12.7423 12.7898ZM9.04533 1.05266C9.00263 5.88947 8.33705 13.9131 4.68823 17.8104H1.05266V1.05266H9.04533ZM1.05266 18.863H4.29635V19.768H1.05266V18.863ZM1.05266 20.8207H4.78779C7.1304 22.5768 10.3654 27.4674 10.5191 34.5873H1.05266V20.8207ZM31.6519 34.5873H16.878V16.9258L18.9027 18.9487C19.0014 19.0474 19.1352 19.1028 19.2748 19.1028C19.4143 19.1028 19.5481 19.0474 19.6468 18.9487C19.7455 18.8501 19.8009 18.7162 19.8009 18.5767C19.8009 18.4372 19.7455 18.3033 19.6468 18.2047L16.8798 15.4377V1.05266H31.6519V22.3314L27.6927 18.3728C27.5984 18.2784 27.5235 18.1663 27.4726 18.043C27.4216 17.9196 27.3954 17.7874 27.3955 17.654C27.3957 17.5205 27.4221 17.3884 27.4734 17.2651C27.5246 17.1419 27.5997 17.03 27.6942 16.9358L30.4874 14.1426C30.5363 14.0938 30.5751 14.0358 30.6015 13.9719C30.628 13.9081 30.6416 13.8397 30.6416 13.7706C30.6416 13.7015 30.628 13.633 30.6015 13.5692C30.5751 13.5053 30.5363 13.4474 30.4874 13.3985L29.1412 12.0523C29.0923 12.0034 29.0343 11.9646 28.9704 11.9381C28.9066 11.9117 28.8381 11.898 28.769 11.898C28.6998 11.898 28.6314 11.9117 28.5675 11.9381C28.5037 11.9646 28.4456 12.0034 28.3968 12.0523L19.1734 21.2763C19.1245 21.3252 19.0857 21.3832 19.0592 21.447C19.0327 21.5109 19.0191 21.5794 19.0191 21.6485C19.0191 21.7176 19.0327 21.7861 19.0592 21.85C19.0857 21.9138 19.1245 21.9718 19.1734 22.0207L20.5199 23.3669C20.6186 23.4655 20.7524 23.5209 20.8919 23.5209C21.0315 23.5209 21.1653 23.4655 21.264 23.3669L24.0586 20.5722C24.2492 20.3821 24.5074 20.2754 24.7765 20.2754C25.0457 20.2754 25.3039 20.3821 25.4945 20.5722L31.6519 26.7306V34.5873ZM25.6713 19.429C25.2855 19.2427 24.8513 19.181 24.4288 19.2526C24.0064 19.3241 23.6167 19.5252 23.3137 19.8282L20.891 22.2508L20.2895 21.6493L28.7676 13.1687L29.3691 13.7703L26.948 16.1911C26.6441 16.4939 26.4422 16.884 26.3703 17.307C26.2984 17.73 26.3601 18.1648 26.5468 18.5511L25.6713 19.429ZM33.6589 27.2488L26.5008 20.0907L27.2115 19.3803L31.8041 23.9729L31.8119 23.9807L34.3708 26.5399L33.6589 27.2488Z" fill="#3D6AEB"/>
<path d="M25.3248 12.5248C25.4235 12.6235 25.5574 12.679 25.697 12.679C25.8366 12.679 25.9704 12.6235 26.0692 12.5248C26.1679 12.4261 26.2233 12.2922 26.2233 12.1526C26.2233 12.013 26.1679 11.8791 26.0692 11.7804L19.9102 5.62179C19.8616 5.57153 19.8036 5.53144 19.7393 5.50387C19.6751 5.4763 19.6061 5.46179 19.5362 5.4612C19.4663 5.46061 19.397 5.47394 19.3323 5.50042C19.2676 5.52689 19.2089 5.56599 19.1595 5.61542C19.11 5.66484 19.071 5.72362 19.0445 5.78831C19.0181 5.853 19.0048 5.9223 19.0054 5.99219C19.006 6.06208 19.0205 6.13114 19.0481 6.19535C19.0757 6.25955 19.1158 6.31762 19.1661 6.36617L25.3248 12.5248Z" fill="#EF8C6E"/>
<path d="M23.1838 14.6663C23.2825 14.765 23.4164 14.8205 23.556 14.8205C23.6956 14.8205 23.8294 14.765 23.9282 14.6663C24.0269 14.5676 24.0823 14.4337 24.0823 14.2941C24.0823 14.1545 24.0269 14.0206 23.9282 13.9219L19.7912 9.78527C19.7427 9.73499 19.6846 9.69488 19.6204 9.66728C19.5562 9.63969 19.4871 9.62515 19.4172 9.62453C19.3474 9.62391 19.278 9.63721 19.2134 9.66367C19.1487 9.69012 19.0899 9.72919 19.0405 9.77859C18.991 9.828 18.9519 9.88676 18.9255 9.95144C18.899 10.0161 18.8857 10.0854 18.8862 10.1553C18.8868 10.2252 18.9013 10.2943 18.9289 10.3585C18.9565 10.4227 18.9966 10.4808 19.0468 10.5293L23.1838 14.6663Z" fill="#EF8C6E"/>
<path d="M21.4145 16.9618C21.5186 16.9618 21.6203 16.9309 21.7068 16.8731C21.7933 16.8152 21.8607 16.733 21.9005 16.6369C21.9403 16.5408 21.9508 16.435 21.9305 16.3329C21.9102 16.2308 21.8601 16.1371 21.7866 16.0635L19.8253 14.1019C19.7266 14.0032 19.5927 13.9478 19.4531 13.9478C19.3135 13.9478 19.1796 14.0032 19.0809 14.1019C18.9822 14.2006 18.9268 14.3345 18.9268 14.4741C18.9268 14.6137 18.9822 14.7476 19.0809 14.8463L21.0425 16.8075C21.0913 16.8565 21.1492 16.8954 21.2131 16.9218C21.2769 16.9483 21.3454 16.9619 21.4145 16.9618Z" fill="#EF8C6E"/>
</svg>
