<svg width="36" height="36" viewBox="0 0 36 36" fill="none" xmlns="http://www.w3.org/2000/svg">
<path d="M7.45508 23.9279V29.7927C7.45508 29.9323 7.51053 30.0662 7.60924 30.1649C7.70794 30.2636 7.84182 30.3191 7.98141 30.3191H18.2072C18.3468 30.3191 18.4807 30.2636 18.5794 30.1649C18.6781 30.0662 18.7336 29.9323 18.7336 29.7927V23.9279C18.7336 23.8588 18.72 23.7904 18.6936 23.7265C18.6671 23.6626 18.6284 23.6046 18.5795 23.5557C18.5306 23.5068 18.4726 23.468 18.4087 23.4416C18.3448 23.4152 18.2764 23.4016 18.2072 23.4016H7.98141C7.91228 23.4016 7.84382 23.4152 7.77994 23.4416C7.71607 23.468 7.65803 23.5068 7.60915 23.5557C7.56027 23.6046 7.5215 23.6626 7.49506 23.7265C7.46863 23.7904 7.45504 23.8588 7.45508 23.9279ZM8.50773 24.4543H17.6809V29.2664H8.50773V24.4543Z" fill="#2C47F0"/>
<path d="M9.48531 10.1257C9.34572 10.1257 9.21185 10.1812 9.11314 10.2799C9.01444 10.3786 8.95898 10.5125 8.95898 10.6521C8.95898 10.7917 9.01444 10.9255 9.11314 11.0242C9.21185 11.1229 9.34572 11.1784 9.48531 11.1784H16.7035C16.8431 11.1784 16.977 11.1229 17.0757 11.0242C17.1744 10.9255 17.2299 10.7917 17.2299 10.6521C17.2299 10.5125 17.1744 10.3786 17.0757 10.2799C16.977 10.1812 16.8431 10.1257 16.7035 10.1257H9.48531Z" fill="#E9663D"/>
<path d="M9.48531 13.5343H16.7035C16.8431 13.5343 16.977 13.4789 17.0757 13.3802C17.1744 13.2815 17.2299 13.1476 17.2299 13.008C17.2299 12.8684 17.1744 12.7346 17.0757 12.6358C16.977 12.5371 16.8431 12.4817 16.7035 12.4817H9.48531C9.34572 12.4817 9.21185 12.5371 9.11314 12.6358C9.01444 12.7346 8.95898 12.8684 8.95898 13.008C8.95898 13.1476 9.01444 13.2815 9.11314 13.3802C9.21185 13.4789 9.34572 13.5343 9.48531 13.5343Z" fill="#E9663D"/>
<path d="M9.48531 15.8901H16.7035C16.7727 15.8901 16.8411 15.8764 16.905 15.85C16.9688 15.8235 17.0268 15.7848 17.0757 15.7359C17.1246 15.687 17.1633 15.629 17.1898 15.5651C17.2162 15.5013 17.2299 15.4328 17.2299 15.3637C17.2299 15.2946 17.2162 15.2262 17.1898 15.1623C17.1633 15.0985 17.1246 15.0404 17.0757 14.9916C17.0268 14.9427 16.9688 14.9039 16.905 14.8775C16.8411 14.851 16.7727 14.8374 16.7035 14.8374H9.48531C9.34572 14.8374 9.21185 14.8929 9.11314 14.9916C9.01444 15.0903 8.95898 15.2241 8.95898 15.3637C8.95898 15.5033 9.01444 15.6372 9.11314 15.7359C9.21185 15.8346 9.34572 15.8901 9.48531 15.8901Z" fill="#E9663D"/>
<path d="M35.4123 5.80947C35.342 5.76112 35.261 5.73055 35.1763 5.72039C35.0916 5.71022 35.0057 5.72077 34.926 5.75112L32.3554 6.73159H31.202C30.5054 4.9911 28.7318 2.31825 24.3098 1.47703C21.7885 0.986122 19.1861 1.10835 16.7219 1.83343V0.526329C16.7218 0.386814 16.6664 0.253032 16.5678 0.154352C16.4692 0.0556724 16.3354 0.000159331 16.1959 0H9.99243C9.85286 7.96841e-05 9.71903 0.0555575 9.62034 0.154246C9.52166 0.252935 9.46618 0.386762 9.4661 0.526329V5.32043H8.62397C7.56322 5.3192 6.54266 5.72612 5.77377 6.45688C5.00489 7.18764 4.54662 8.1862 4.49395 9.24564L3.66746 25.3763C3.31864 25.1307 2.90905 24.9857 2.48342 24.9571C2.05779 24.9286 1.63249 25.0175 1.25399 25.2143C0.875493 25.4111 0.558347 25.7081 0.337197 26.0728C0.116048 26.4376 -0.000597748 26.8562 2.30347e-06 27.2828V33.3091C-0.000384524 33.7687 0.135254 34.2183 0.389835 34.601C0.644415 34.9837 1.00655 35.2825 1.43064 35.4599C1.85473 35.6372 2.32181 35.685 2.77305 35.5974C3.22428 35.5098 3.6395 35.2906 3.96641 34.9675C4.40009 35.396 4.98446 35.6374 5.59412 35.64H20.593C21.2029 35.6374 21.7875 35.3957 22.2213 34.9669C22.5482 35.2901 22.9633 35.5093 23.4146 35.597C23.8658 35.6847 24.3329 35.637 24.757 35.4597C25.1812 35.2824 25.5434 34.9837 25.798 34.601C26.0526 34.2183 26.1883 33.7688 26.188 33.3091V27.2828C26.1886 26.8562 26.0719 26.4376 25.8507 26.0728C25.6295 25.708 25.3124 25.411 24.9338 25.2143C24.5553 25.0176 24.1299 24.9286 23.7043 24.9573C23.2786 24.9859 22.869 25.1309 22.5203 25.3766L21.6962 9.24534C21.642 8.18615 21.183 7.18825 20.414 6.45781C19.6451 5.72737 18.6249 5.3202 17.5643 5.32043H16.7222V2.94774C19.1108 2.188 21.6514 2.03798 24.1128 2.51134C27.7273 3.19918 29.3397 5.22659 30.0522 6.73189H29.7457C29.6061 6.73197 29.4723 6.78745 29.3736 6.88614C29.2749 6.98483 29.2194 7.11866 29.2194 7.25822V13.3086C29.2196 13.4349 29.2654 13.5568 29.3482 13.6521C29.4311 13.7474 29.5455 13.8096 29.6705 13.8274V30.309C29.5491 30.3261 29.4375 30.3852 29.3551 30.4759C29.2727 30.5667 29.2247 30.6834 29.2194 30.8059L29.0389 35.0908C29.0359 35.1617 29.0474 35.2324 29.0724 35.2988C29.0975 35.3652 29.1358 35.4258 29.1849 35.477C29.234 35.5282 29.2929 35.569 29.3582 35.5968C29.4235 35.6247 29.4937 35.639 29.5646 35.6391H32.6324C32.7033 35.6391 32.7735 35.6248 32.8388 35.5971C32.904 35.5693 32.963 35.5287 33.0122 35.4775C33.0614 35.4264 33.0997 35.3659 33.1249 35.2996C33.15 35.2333 33.1615 35.1626 33.1587 35.0917L32.9783 30.8068C32.9729 30.6843 32.9249 30.5676 32.8425 30.4768C32.7601 30.3861 32.6485 30.327 32.5271 30.3099V13.8283C32.6523 13.8106 32.7669 13.7483 32.8498 13.6528C32.9327 13.5573 32.9783 13.4351 32.9783 13.3086V9.29436L35.1867 8.98217C35.312 8.96409 35.4266 8.90143 35.5095 8.8057C35.5924 8.70997 35.6379 8.58757 35.6379 8.46096V6.24286C35.6381 6.15777 35.6177 6.0739 35.5784 5.99842C35.5391 5.92294 35.4821 5.85811 35.4123 5.80947ZM10.5188 1.05266H15.6693V2.21208C13.905 2.94744 12.6526 4.03438 12.0824 5.32043H10.5185L10.5188 1.05266ZM2.33089 34.5873C1.992 34.5869 1.66711 34.4521 1.42748 34.2125C1.18786 33.9729 1.05306 33.648 1.05266 33.3091V27.2828C1.05266 26.9438 1.18733 26.6186 1.42704 26.3789C1.66676 26.1392 1.99188 26.0045 2.33089 26.0045C2.66989 26.0045 2.99502 26.1392 3.23473 26.3789C3.47444 26.6186 3.60911 26.9438 3.60911 27.2828V33.3091C3.60872 33.648 3.47392 33.9729 3.23429 34.2125C2.99466 34.4521 2.66977 34.5869 2.33089 34.5873ZM23.8571 26.0045C24.196 26.0049 24.5209 26.1397 24.7605 26.3794C25.0002 26.619 25.135 26.9439 25.1354 27.2828V33.3091C25.1354 33.6481 25.0007 33.9732 24.761 34.2129C24.5213 34.4526 24.1961 34.5873 23.8571 34.5873C23.5181 34.5873 23.193 34.4526 22.9533 34.2129C22.7136 33.9732 22.5789 33.6481 22.5789 33.3091V27.2828C22.5793 26.9439 22.7141 26.619 22.9537 26.3794C23.1934 26.1397 23.5182 26.0049 23.8571 26.0045ZM20.6447 9.29917L21.5494 26.9781C21.5354 27.0791 21.528 27.1808 21.5271 27.2828V33.3091C21.5275 33.5555 21.5669 33.8002 21.6441 34.0342C21.5269 34.2045 21.3701 34.3438 21.1871 34.4401C21.0042 34.5364 20.8006 34.5869 20.5939 34.5873H5.59412C5.38757 34.5868 5.18422 34.5362 5.00147 34.44C4.81872 34.3437 4.66202 34.2046 4.54478 34.0345C4.62197 33.8004 4.66146 33.5556 4.66177 33.3091V27.2828C4.66096 27.1804 4.65343 27.0783 4.63921 26.9769L5.5451 9.29857C5.58448 8.50909 5.926 7.76499 6.49893 7.22039C7.07186 6.67579 7.8323 6.37242 8.62277 6.37309H9.98521H9.99243H16.1959H16.2031H17.5643C18.355 6.37305 19.1154 6.67664 19.6887 7.22117C20.2619 7.7657 20.6042 8.50957 20.6447 9.29917ZM13.2707 5.32043C13.8699 4.45535 14.7014 3.77716 15.6693 3.36399V5.32043H13.2707ZM30.7226 30.3015V13.8349H31.4745V30.3015H30.7226ZM31.9256 8.83601V12.7823H30.2714V7.78425H31.9256V8.83601ZM30.1147 34.5864L30.2501 31.3541H31.9475L32.0829 34.5864H30.1147ZM34.5873 8.0038L32.9789 8.23118V7.62064L34.5873 7.00709V8.0038Z" fill="#3D6AEB"/>
</svg>
