<svg width="36" height="36" viewBox="0 0 36 36" fill="none" xmlns="http://www.w3.org/2000/svg">
<path d="M32.382 18.1222L29.4896 16.4966L27.1918 15.2034V14.2049C28.0752 13.469 28.7826 12.5446 29.2619 11.4995C29.8674 11.4452 30.4321 11.1714 30.8496 10.7296C31.2672 10.2878 31.5087 9.70853 31.5287 9.10097C31.518 8.62527 31.3681 8.16314 31.0975 7.77175C30.8269 7.38035 30.4476 7.07686 30.0063 6.89882C29.5916 3.01752 26.6724 0 23.1412 0C19.61 0 16.6905 3.01812 16.276 6.90002C15.8341 7.07691 15.454 7.37992 15.1831 7.77129C14.9122 8.16265 14.7624 8.62508 14.7524 9.10097C14.7727 9.70866 15.0144 10.288 15.4322 10.7298C15.8499 11.1716 16.4148 11.4453 17.0204 11.4995C17.5001 12.5453 18.2081 13.4702 19.0924 14.2064V15.2034L13.8913 18.1268C12.9042 18.7055 12.0852 19.5318 11.5152 20.5239C10.9452 21.5161 10.6439 22.6398 10.641 23.784V25.5811L9.27076 21.7446C9.23423 21.6424 9.16699 21.554 9.07826 21.4915C8.98953 21.429 8.88365 21.3954 8.77511 21.3954H7.77178V21.0134H7.96607C8.0352 21.0135 8.10365 20.9999 8.16753 20.9735C8.2314 20.947 8.28944 20.9083 8.33832 20.8594C8.38721 20.8105 8.42597 20.7525 8.45241 20.6886C8.47885 20.6247 8.49243 20.5562 8.49239 20.4871V18.1412C8.49194 17.7887 8.40705 17.4415 8.24484 17.1286C8.08263 16.8157 7.84781 16.5462 7.56004 16.3427V15.4741L8.87255 14.7937C8.99522 15.1337 9.03109 15.499 8.97692 15.8563C8.94693 15.9927 8.97233 16.1354 9.04754 16.253C9.12276 16.3706 9.24162 16.4536 9.37798 16.4836C9.51434 16.5136 9.65703 16.4881 9.77466 16.4129C9.89229 16.3377 9.97522 16.2189 10.0052 16.0825C10.107 15.4844 10.0394 14.8697 9.81002 14.308L10.2612 14.0737H11.5737C11.6428 14.0738 11.7113 14.0602 11.7751 14.0337C11.839 14.0073 11.897 13.9685 11.9459 13.9197C11.9948 13.8708 12.0336 13.8127 12.06 13.7489C12.0865 13.685 12.1 13.6165 12.1 13.5474V12.1056C12.1 12.0364 12.0865 11.968 12.06 11.9041C12.0336 11.8402 11.9948 11.7822 11.9459 11.7333C11.897 11.6844 11.839 11.6456 11.7751 11.6192C11.7113 11.5928 11.6428 11.5792 11.5737 11.5792H10.13C10.1228 11.5792 10.1162 11.581 10.1093 11.5813C10.1024 11.5816 10.0966 11.5813 10.0903 11.5813L3.89619 12.0475C3.44445 12.0805 3.00646 12.2176 2.6165 12.448C2.22653 12.6784 1.89516 12.9959 1.64832 13.3757L0.685887 14.8695C0.634511 14.949 0.605516 15.0409 0.601955 15.1355C0.598395 15.23 0.6204 15.3238 0.665654 15.4069C0.710908 15.4901 0.777736 15.5594 0.859103 15.6078C0.940469 15.6561 1.03336 15.6816 1.128 15.6816H4.54162V16.3412C4.25377 16.5447 4.0189 16.8143 3.85668 17.1274C3.69446 17.4404 3.60962 17.7877 3.60927 18.1403V20.4862C3.60927 20.6258 3.66472 20.7597 3.76343 20.8584C3.86213 20.9571 3.996 21.0125 4.1356 21.0125H4.33079V21.3945H3.32715C3.21861 21.3945 3.1127 21.428 3.02396 21.4905C2.93522 21.553 2.868 21.6415 2.8315 21.7437L0.290389 28.8594C0.0218456 29.6108 -0.0621386 30.4158 0.0455132 31.2066C0.153165 31.9973 0.449298 32.7505 0.908961 33.4029C1.36862 34.0552 1.97835 34.5875 2.68676 34.9549C3.39517 35.3223 4.18151 35.514 4.97953 35.514H7.12244C7.77618 35.5141 8.42351 35.3852 9.02735 35.1347C9.63119 34.8841 10.1797 34.5169 10.6413 34.0541V34.9864C10.6413 35.126 10.6968 35.2599 10.7955 35.3586C10.8942 35.4573 11.0281 35.5127 11.1676 35.5127H35.1138C35.1829 35.5128 35.2514 35.4992 35.3153 35.4728C35.3791 35.4463 35.4372 35.4076 35.4861 35.3587C35.5349 35.3098 35.5737 35.2518 35.6001 35.1879C35.6266 35.124 35.6402 35.0555 35.6401 34.9864V23.784C35.6368 22.6384 35.3345 21.5134 34.7631 20.5204C34.1917 19.5274 33.3709 18.7007 32.382 18.1222ZM26.3256 16.9177V20.3247H19.9585V16.93C20.1692 17.0929 20.3928 17.2384 20.6271 17.3649C21.3977 17.7967 22.2583 18.0431 23.1406 18.0847C24.2953 18.0239 25.405 17.6173 26.3256 16.9177ZM17.5795 20.3247V17.2618L18.9059 16.5153V20.3247H17.5795ZM26.7268 34.4604H19.5558V30.8062H26.7268V34.4604ZM27.7795 34.4604V30.2798C27.7795 30.2107 27.7659 30.1422 27.7395 30.0784C27.7131 30.0145 27.6743 29.9565 27.6254 29.9076C27.5765 29.8587 27.5185 29.8199 27.4546 29.7935C27.3907 29.7671 27.3223 29.7535 27.2532 29.7535H19.0295C18.9604 29.7535 18.8919 29.7671 18.828 29.7935C18.7642 29.8199 18.7061 29.8587 18.6572 29.9076C18.6084 29.9565 18.5696 30.0145 18.5431 30.0784C18.5167 30.1422 18.5031 30.2107 18.5032 30.2798V34.4604H16.6385L17.5446 21.3774H19.428H19.4337H19.4397H26.8462H26.8519H26.858H28.7398L29.6454 34.4604H27.7795ZM28.7046 20.3247H27.3783V16.5174L28.7046 17.2627V20.3247ZM29.7212 10.2676C29.9161 9.58384 30.0272 8.87891 30.052 8.16832C30.1825 8.28663 30.2875 8.43036 30.3605 8.59069C30.4334 8.75101 30.4729 8.92456 30.4764 9.10067C30.4694 9.34567 30.3952 9.58405 30.2621 9.78982C30.1289 9.99559 29.9418 10.1609 29.7212 10.2676ZM23.1412 1.05266C25.9608 1.05266 28.3214 3.37061 28.8803 6.44828C28.0126 6.22692 26.556 5.65909 26.0685 4.28522C26.0322 4.18258 25.965 4.09372 25.8761 4.03087C25.7872 3.96801 25.6811 3.93426 25.5722 3.93426C25.4634 3.93426 25.3572 3.96801 25.2683 4.03087C25.1794 4.09372 25.1122 4.18258 25.076 4.28522C24.6194 5.57187 20.5011 6.34843 17.3858 6.54422C17.9128 3.41903 20.2927 1.05266 23.1412 1.05266ZM15.8051 9.10097C15.808 8.92418 15.8474 8.74989 15.9206 8.58897C15.9939 8.42805 16.0995 8.28393 16.2309 8.16561C16.2552 8.87754 16.3663 9.58384 16.5618 10.2688C16.341 10.1619 16.1537 9.99648 16.0203 9.79059C15.8869 9.5847 15.8124 9.34619 15.8051 9.10097ZM17.2764 7.84861C17.2764 7.76681 17.2794 7.6862 17.2818 7.6053C19.0779 7.50454 23.7481 7.0907 25.4925 5.46991C26.445 6.89581 28.1801 7.39477 28.9988 7.55507C29.0024 7.65252 29.0051 7.75026 29.0051 7.84891C29.0051 11.5961 26.374 14.6461 23.1403 14.6461C19.9065 14.6461 17.2764 11.5958 17.2764 7.84861ZM23.1412 15.6984C24.19 15.697 25.2214 15.4301 26.1391 14.9225V15.5132C26.1391 15.9899 24.4284 17.032 23.1406 17.032C22.4346 16.99 21.7474 16.7878 21.1312 16.4407C20.4067 16.0455 20.145 15.6699 20.145 15.5102V14.9222C21.0624 15.4291 22.0931 15.6956 23.1412 15.6969V15.6984ZM4.66222 19.9608V18.1403C4.66262 17.8336 4.78477 17.5395 5.00183 17.3228C5.2189 17.1061 5.51312 16.9844 5.81985 16.9845H6.28542C6.59187 16.9848 6.88567 17.1067 7.10236 17.3234C7.31905 17.54 7.44092 17.8338 7.44124 18.1403V19.9608H4.66222ZM10.6594 12.6319H11.0504V13.0229H10.6594V12.6319ZM5.06795 14.6289H2.09464L2.53586 13.9456C2.69417 13.7025 2.90661 13.4993 3.15655 13.352C3.40648 13.2047 3.68712 13.1173 3.97649 13.0966L9.60641 12.6731V13.2289L6.7925 14.6879C6.70694 14.7323 6.63523 14.7994 6.58517 14.8819C6.53511 14.9643 6.50862 15.0588 6.50859 15.1553V15.9432C6.43394 15.9356 6.35895 15.9318 6.28392 15.9318H5.81985C5.74406 15.9318 5.66947 15.9357 5.59578 15.9429V15.1553C5.59578 15.086 5.58212 15.0174 5.55557 14.9535C5.52903 14.8895 5.49013 14.8314 5.44109 14.7826C5.39206 14.7337 5.33386 14.6949 5.26983 14.6686C5.2058 14.6422 5.13719 14.6287 5.06795 14.6289ZM5.38375 21.0134H6.71912V21.3954H5.38375V21.0134ZM3.69949 22.4481H4.8514H4.85742H7.24545H7.25116H8.40397L9.41362 25.2752H2.68834L3.69949 22.4481ZM2.3139 26.3279H9.78987L10.6789 28.8169C10.681 28.8218 10.6822 28.8269 10.6843 28.8317L10.8209 29.2142C10.9773 29.653 11.0543 30.1161 11.0482 30.5818H1.05402C1.0479 30.116 1.125 29.6529 1.28169 29.2142L2.3139 26.3279ZM7.12394 34.4619H4.97953C4.13024 34.4623 3.30381 34.1868 2.6246 33.6769C1.9454 33.167 1.45016 32.4504 1.21342 31.6348H10.8885C10.8347 31.8216 10.7671 32.0041 10.6861 32.1809C10.6846 32.1839 10.6831 32.1866 10.6819 32.1897C10.3672 32.8684 9.86477 33.443 9.23406 33.8455C8.60334 34.248 7.87064 34.4617 7.12244 34.4613L7.12394 34.4619ZM11.6955 32.507C11.8759 32.0951 11.9966 31.6596 12.054 31.2137V31.2095C12.1644 30.418 12.0818 29.6115 11.8134 28.8588L11.6952 28.5279V23.784C11.6973 22.825 11.9493 21.883 12.4265 21.0511C12.9036 20.2192 13.5894 19.526 14.4161 19.0399L16.5269 17.8522V20.8146L15.5819 34.461H11.6937L11.6955 32.507ZM34.5893 34.4619H30.7008L29.7573 20.8375V17.8546L31.8587 19.0354C32.6873 19.5211 33.3748 20.2147 33.8534 21.0475C34.3319 21.8803 34.585 22.8235 34.5875 23.784L34.5893 34.4619Z" fill="#3D6AEB"/>
<path d="M19.5243 22.6677C19.3459 22.6677 19.1714 22.7206 19.0231 22.8198C18.8747 22.9189 18.759 23.0598 18.6908 23.2247C18.6225 23.3896 18.6046 23.571 18.6394 23.746C18.6742 23.9211 18.7602 24.0818 18.8863 24.208C19.0125 24.3342 19.1733 24.4201 19.3483 24.4549C19.5233 24.4898 19.7048 24.4719 19.8696 24.4036C20.0345 24.3353 20.1754 24.2197 20.2746 24.0713C20.3737 23.9229 20.4266 23.7485 20.4266 23.57C20.4266 23.3307 20.3316 23.1012 20.1624 22.932C19.9931 22.7628 19.7636 22.6677 19.5243 22.6677Z" fill="#F25929"/>
<path d="M26.7577 22.6677C26.5793 22.6677 26.4048 22.7206 26.2565 22.8198C26.1081 22.9189 25.9924 23.0598 25.9242 23.2247C25.8559 23.3896 25.838 23.571 25.8728 23.746C25.9076 23.9211 25.9936 24.0818 26.1197 24.208C26.2459 24.3342 26.4067 24.4201 26.5817 24.4549C26.7567 24.4898 26.9382 24.4719 27.103 24.4036C27.2679 24.3353 27.4088 24.2197 27.508 24.0713C27.6071 23.9229 27.66 23.7485 27.66 23.57C27.66 23.3307 27.565 23.1012 27.3958 22.932C27.2265 22.7628 26.997 22.6677 26.7577 22.6677Z" fill="#F25929"/>
</svg>
