<svg width="28" height="33" viewBox="0 0 28 33" fill="none" xmlns="http://www.w3.org/2000/svg">
<path d="M26.9946 13.2097L27.3575 12.8468C27.558 12.6464 27.558 12.3215 27.3575 12.121C27.1571 11.9206 26.8322 11.9206 26.6317 12.121L26.2688 12.4839L25.9059 12.121C25.7055 11.9206 25.3806 11.9206 25.1801 12.121C24.9797 12.3215 24.9797 12.6464 25.1801 12.8468L25.543 13.2097L25.1801 13.5726C24.9797 13.7731 24.9797 14.098 25.1801 14.2984C25.2803 14.3987 25.4117 14.4488 25.543 14.4488C25.6743 14.4488 25.8057 14.3987 25.9059 14.2984L26.2688 13.9355L26.6317 14.2984C26.7319 14.3987 26.8633 14.4488 26.9946 14.4488C27.1259 14.4488 27.2573 14.3987 27.3575 14.2984C27.558 14.098 27.558 13.7731 27.3575 13.5726L26.9946 13.2097Z" fill="#EF8C6E"/>
<path d="M22.6756 19.3691C22.9591 19.3691 23.1889 19.1393 23.1889 18.8558C23.1889 18.5723 22.9591 18.3425 22.6756 18.3425C22.3922 18.3425 22.1624 18.5723 22.1624 18.8558C22.1624 19.1393 22.3922 19.3691 22.6756 19.3691Z" fill="#EF8C6E"/>
<path d="M25.8061 5.86495C25.5529 5.02956 24.6657 4.55566 23.8318 4.80897C23.4271 4.93152 23.0942 5.20447 22.8947 5.57737C22.6951 5.95028 22.653 6.37863 22.7756 6.78336C22.9826 7.4663 23.6122 7.90748 24.2916 7.90748C24.4433 7.90748 24.5976 7.88541 24.75 7.83934C25.5856 7.58603 26.0593 6.70034 25.8061 5.86495ZM24.4524 6.85702C24.1594 6.94672 23.8471 6.77977 23.7582 6.48578C23.715 6.34347 23.7298 6.19282 23.8 6.06167C23.8702 5.93052 23.987 5.83454 24.1293 5.79155C24.1829 5.77525 24.2371 5.76742 24.2904 5.76742C24.5293 5.76742 24.7506 5.92257 24.8235 6.16266C24.9126 6.45652 24.7462 6.76796 24.4524 6.85702Z" fill="#EF8C6E"/>
<path d="M18.8334 10.2029C18.3349 9.90417 17.774 9.8164 17.2544 9.9555C16.7534 10.0904 16.3316 10.4285 16.0666 10.9082C15.7437 11.4927 15.1543 12.2643 14.6127 12.9263L16.1981 3.68521C16.3014 2.86188 15.8352 2.07166 15.0332 1.75085C14.5076 1.54002 13.9219 1.57543 13.4274 1.84632C12.9346 2.11632 12.592 2.58765 12.487 3.13983C12.2564 4.35313 11.9266 6.01082 11.619 7.53762L11.3551 1.68079C11.3148 0.738376 10.5438 0 9.56879 0C8.57505 0 7.76674 0.804591 7.76674 1.79333V7.18524L6.62491 2.84584C6.4971 2.36013 6.16128 1.96284 5.70355 1.75586C5.24658 1.54887 4.72585 1.55862 4.27722 1.78345C3.63111 2.10631 3.26988 2.80298 3.37793 3.51736L4.26362 9.35315L3.20572 7.41315C2.7648 6.60458 1.74103 6.29108 0.921682 6.7116C0.167009 7.10029 -0.185882 7.96725 0.0973288 8.81136L2.43719 14.297C2.65919 14.9627 2.8364 15.6491 2.96447 16.337L3.64921 20.0206C3.86171 21.164 4.16404 22.3275 5.23619 23.0239L4.21358 26.9385C4.17328 27.0924 4.20652 27.2564 4.30379 27.3821C4.40106 27.5079 4.5512 27.5817 4.71006 27.5817H5.73665V31.6881C5.73665 31.9715 5.96648 32.2014 6.24995 32.2014C6.53342 32.2014 6.76324 31.9715 6.76324 31.6881V27.5817H11.8962V31.6881C11.8962 31.9715 12.126 32.2014 12.4095 32.2014C12.693 32.2014 12.9228 31.9715 12.9228 31.6881V27.5817H13.9494C14.1093 27.5817 14.2599 27.5073 14.3572 27.3802C14.4542 27.2534 14.4868 27.0883 14.445 26.934L13.4855 23.3972C14.187 23.0889 14.7559 22.5244 15.0535 21.8257L19.299 12.5496C19.7645 11.4573 19.6078 10.6678 18.8334 10.2029ZM18.3603 12.1348L14.1148 21.411C13.87 21.9859 13.3569 22.419 12.7424 22.5696C12.608 22.6025 12.4928 22.6882 12.4226 22.8075C12.3524 22.9266 12.3331 23.0692 12.3692 23.2025L13.2788 26.5552H5.37491L6.32977 22.8998C6.39239 22.6607 6.27587 22.4113 6.05259 22.3058C5.1914 21.899 4.89844 21.123 4.6586 19.8332L3.97387 16.1497C3.83733 15.4153 3.64805 14.6827 3.39641 13.9334L1.05655 8.44769C0.949271 8.12586 1.09017 7.77977 1.39186 7.62437C1.71793 7.45601 2.12818 7.58125 2.30437 7.90463L4.75805 12.403C4.8774 12.6221 5.13751 12.7223 5.3726 12.6436C5.60871 12.5639 5.75359 12.3263 5.71625 12.0802L4.39323 3.36337C4.35191 3.09068 4.48973 2.82479 4.73637 2.70173C4.90755 2.6155 5.10581 2.61203 5.28072 2.69095C5.45537 2.77013 5.58343 2.92181 5.63207 3.10698L7.7838 11.2831C7.84951 11.5325 8.09063 11.6934 8.34625 11.6616C8.60213 11.6285 8.79359 11.4104 8.79359 11.1525V1.79346C8.79359 1.37063 9.14147 1.02672 9.60062 1.02672C9.99265 1.02672 10.3129 1.33354 10.3298 1.72596L10.7807 11.7363C10.7925 11.995 10.995 12.2044 11.2529 12.225C11.5061 12.2445 11.7439 12.0704 11.7962 11.8167C11.8075 11.7613 12.9393 6.2599 13.4958 3.33129C13.5431 3.08196 13.698 2.86868 13.9208 2.74677C14.1456 2.62345 14.4122 2.60716 14.6837 2.71675C15.0208 2.85161 15.2248 3.19719 15.1832 3.53455L13.3198 14.3924C13.1362 14.5269 12.9483 14.6604 12.7535 14.7955C12.0349 15.2933 11.2918 15.8081 10.7698 16.5043L10.6788 16.6255C10.5086 16.8524 10.5544 17.1741 10.7813 17.3441C10.8738 17.4136 10.9818 17.4469 11.0888 17.4469C11.245 17.4469 11.3991 17.376 11.4998 17.2416L11.5908 17.1203C12.0131 16.5571 12.6865 16.0908 13.3379 15.6394C13.5867 15.4669 13.832 15.297 14.0605 15.1248C14.1702 15.0421 14.276 14.9256 14.3825 14.7795C14.9209 14.1729 16.346 12.5257 16.9654 11.4044C17.0963 11.1678 17.2882 11.0094 17.5208 10.9471C17.7687 10.8802 18.0474 10.9285 18.305 11.0832C18.4741 11.1846 18.7056 11.3234 18.3603 12.1348Z" fill="#3D6AEB"/>
</svg>
